<svg class="icon" style="width: 1em; height: 1em;vertical-align: middle;fill: currentColor;overflow: hidden;" viewBox="0 0 1024 1024" version="1.1" xmlns="http://www.w3.org/2000/svg" p-id="1464"><path d="M955.365 120.695l-300.704 0 0-13.748c0-40.567-33.029-73.575-73.597-73.575l-133.816 0c-40.568 0-73.575 33.007-73.575 73.575l0 13.748-300.683 0c-12.026 0-21.787 9.76-21.787 21.787s9.76 21.787 21.787 21.787l56.015 0 71.243 807.862c0.981 11.264 10.414 19.869 21.699 19.869l580.122 0c11.307 0 20.697-8.628 21.699-19.869l71.222-807.862 60.372 0c12.048 0 21.787-9.76 21.787-21.787s-9.76-21.787-21.787-21.787zM417.249 106.947c0-16.558 13.464-30.001 30.001-30.001l133.816 0c16.558 0 30.023 13.464 30.023 30.001l0 13.748-193.838 0 0-13.748zM782.093 948.426l-540.208 0-69.13-784.157 678.469 0-69.13 784.157zM372.564 801.364c12.026 0 21.787-9.739 21.787-21.787l0-414.192c0-12.026-9.76-21.787-21.787-21.787s-21.787 9.76-21.787 21.787l0 414.192c0 12.026 9.76 21.787 21.787 21.787zM514.179 801.364c12.048 0 21.787-9.739 21.787-21.787l0-414.192c0-12.026-9.739-21.787-21.787-21.787-12.026 0-21.787 9.76-21.787 21.787l0 414.192c0 12.026 9.76 21.787 21.787 21.787zM655.794 801.364c12.048 0 21.787-9.739 21.787-21.787l0-414.192c0-12.026-9.739-21.787-21.787-21.787s-21.787 9.76-21.787 21.787l0 414.192c0 12.026 9.739 21.787 21.787 21.787z" p-id="1465"></path></svg>
